/* XPM */
static char * black_head_horse_side_view_with_horsehair_xpm[] = {
"18 18 2 1",
" 	c None",
".	c #FFFFFF",
"                  ",
"            ..    ",
"      ........    ",
"     .........    ",
"     ..........   ",
"   ............   ",
"  ..............  ",
"  ..............  ",
"  ........  ..... ",
"  ........   .... ",
"  ........    ..  ",
"  ........        ",
"   .......        ",
"   ........       ",
"    .......       ",
"     .......      ",
"      ......      ",
"         ..       "};
