/* XPM */
static char *b68bfb8bceaa4feacc754fa87c4730c4ixwsJUemTzMUlHco[] = {
/* columns rows colors chars-per-pixel */
"24 24 2 1 ",
"  c None",
". c black",
/* pixels */
"           .......      ",
"           .. .....   . ",
"          ..   .  ..... ",
"          .       ..... ",
"          .      ..   . ",
"          .  .....      ",
"          .  ..         ",
"          .  ..         ",
"        ..........      ",
"       ..     ....      ",
"      ..      .. ..     ",
"      ..       ....     ",
"      ...       ...     ",
"     ...............    ",
" .. ..    .. ..    ..   ",
".....      ...      ..  ",
".. ..               ..  ",
" . ...             ..   ",
" ...................... ",
" ..  .. ..            . ",
" ..   ...             ..",
" ..            ....   ..",
"  ..          .. ... .. ",
"   ...................  "
};
