/* XPM */
static char * snake_white_xpm[] = {
"18 18 2 1",
" 	c None",
".	c #FFFFFF",
"         .....    ",
"        .  . .. . ",
"       .     .... ",
"       .     .  . ",
"       .  ...     ",
"       .  .       ",
"     ........     ",
"     .     . .    ",
"     .     ...    ",
"     ..     ..    ",
"   .............  ",
"....    ...    .  ",
"....           .  ",
" ................ ",
" .......        . ",
" .   ..     .    .",
" ..        ...  . ",
"  ............... "};
