/* XPM */
static char * wolf_howling_at_the_moon_xpm[] = {
"18 18 19 1",
" 	c None",
".	c #FDFEFB",
"+	c #FCFEFB",
"@	c #FCFDFA",
"#	c #F9FCF9",
"$	c #FCFEFC",
"%	c #EFF1EE",
"&	c #F2F3F0",
"*	c #FBFDF9",
"=	c #FBFDFB",
"-	c #F5F7F4",
";	c #FDFFFD",
">	c #FDFFFB",
",	c #FAFCF9",
"'	c #FAFDFA",
")	c #FCFFFB",
"!	c #FDFFFC",
"~	c #FBFDFA",
"{	c #F1F3F0",
"       .++@       ",
"    #$%    &$*    ",
"   =-         ;   ",
"  >,          ,'  ",
" ++ )          >) ",
" +  +++         + ",
" !  !+++        + ",
" ~  +++++++       ",
" +  {++++++++    >",
"     +++++++++   >",
" +    +++++++!, ' ",
" +     +++++,   + ",
" !     ++++++   ! ",
"  !    ++++++  >  ",
"   +   ++++++ +   ",
"    =  ++++++     ",
"       +++++++    ",
"            ++    "};
